<svg width="60" height="60" viewBox="0 0 60 60" fill="none" xmlns="http://www.w3.org/2000/svg">
<g clip-path="url(#clip0_1793_4807)">
<path d="M7.74771 49.784C3.27202 44.5814 0.589741 37.7915 0.66004 30.3741C0.812375 14.3132 13.9798 1.29526 30.0414 1.31741C46.2271 1.33981 59.3414 14.4677 59.3414 30.6587C59.3414 38.0014 56.6442 44.7139 52.1866 49.86C52.1319 49.9232 52.0646 49.9741 51.989 50.0097C51.9134 50.0452 51.8312 50.0645 51.7477 50.0664C51.6642 50.0683 51.5812 50.0527 51.5041 50.0206C51.427 49.9885 51.3574 49.9406 51.2999 49.88C45.9526 44.2378 38.3873 40.7186 30 40.7186C21.6483 40.7186 14.1115 44.2081 8.76806 49.8086C8.48711 50.103 8.01321 50.0926 7.74771 49.784Z" fill="#65B1CF"/>
<path d="M52.2755 10.7784V49.757C50.8493 51.4188 49.2426 52.9168 47.4851 54.2233C47.473 54.2323 47.2615 54.0853 47.2493 54.0943C45.7577 55.1993 44.1523 55.9567 42.296 55.9567H17.7746C15.8724 55.9571 14.0208 55.3439 12.4948 54.2082C10.7451 52.9053 9.14526 51.4125 7.72461 49.757V10.7784C7.72461 9.45551 8.79694 8.38318 10.1198 8.38318H49.8803C51.2032 8.38318 52.2755 9.45551 52.2755 10.7784Z" fill="#3342AE"/>
<path d="M14.2716 55.2337C13.6414 54.9621 13.0452 54.618 12.4948 54.2082C10.7451 52.9053 9.14526 51.4125 7.72461 49.757V10.7784C7.72461 9.45551 8.79694 8.38318 10.1198 8.38318H16.6668C15.3439 8.38318 14.2716 9.45551 14.2716 10.7784V55.2337Z" fill="#2B3894"/>
<path d="M47.4851 13.1737V54.2234C42.6018 57.8527 36.5518 60 30 60C23.4483 60 17.3982 57.8527 12.515 54.2234V13.1737C12.515 12.5122 13.0512 11.9761 13.7126 11.9761H46.2875C46.9489 11.9761 47.4851 12.5122 47.4851 13.1737Z" fill="#FFF5F5"/>
<path d="M41.2951 57.7471C37.8185 59.1985 34.0028 60 30 60C23.4483 60 17.3982 57.8527 12.515 54.2234V13.1737C12.515 12.5122 13.0512 11.9761 13.7126 11.9761H16.5869V52.8663C21.4701 56.4955 27.5202 58.6429 34.0719 58.6429C36.5645 58.6429 38.9844 58.332 41.2951 57.7471Z" fill="#F5F0EB"/>
<path d="M32.3952 0H27.6048C25.1284 0 23.1138 2.01461 23.1138 4.49102V13.1737C23.1138 15.6501 25.1284 17.6647 27.6048 17.6647H32.3952C34.8716 17.6647 36.8862 15.6501 36.8862 13.1737V4.49102C36.8862 2.01461 34.8716 0 32.3952 0ZM35.0898 13.1737C35.0898 14.6594 33.8809 15.8683 32.3952 15.8683H27.6048C26.119 15.8683 24.9102 14.6594 24.9102 13.1737V4.49102C24.9102 3.00527 26.119 1.79641 27.6048 1.79641H32.3952C33.8809 1.79641 35.0898 3.00527 35.0898 4.49102V13.1737ZM39.4992 31.0678L35.4214 41.7719C35.078 42.6734 33.9861 43.0224 33.1833 42.4873C33.0038 42.3676 32.8521 42.2105 32.7386 42.0269C32.6251 41.8433 32.5525 41.6374 32.5257 41.4232L32.1363 38.3078C32.1363 38.3078 32.088 36.7327 31.4589 35.5222C30.8879 34.4232 29.3193 34.412 28.7705 35.5222C28.2603 36.5545 28.1043 38.2184 28.1043 38.2184L27.7037 41.4234C27.6769 41.6375 27.6043 41.8434 27.4909 42.0271C27.3774 42.2107 27.2257 42.3677 27.0461 42.4874C26.2433 43.0225 25.1515 42.6735 24.8081 41.772L20.7304 31.0679C20.1071 29.4317 20.0006 27.6437 20.4253 25.9451L21.2332 22.7135C21.6104 21.2046 23.1268 20.2758 24.6424 20.6256L26.1578 20.9753C26.7442 21.1107 27.3565 21.0497 27.9106 20.815C29.3442 20.2077 30.8853 20.2077 32.3188 20.815C32.8729 21.0497 33.4853 21.1107 34.0716 20.9753L35.5871 20.6256C37.1026 20.2759 38.619 21.2046 38.9963 22.7135L39.8042 25.9451C40.229 27.6437 40.1225 29.4317 39.4992 31.0678Z" fill="#D3D3D8"/>
<path d="M27.2734 41.7719C27.3184 41.8901 27.3763 41.9988 27.4447 42.0973C27.3374 42.2511 27.2022 42.3834 27.0462 42.4874C26.2434 43.0224 25.1516 42.6735 24.8081 41.7719L20.7304 31.0677C20.1071 29.4315 20.0006 27.6436 20.4252 25.945L21.2331 22.7133C21.6104 21.2044 23.1268 20.2756 24.6425 20.6254L25.3361 20.7856C24.5477 21.1263 23.9222 21.8177 23.6983 22.7135L22.8904 25.9451C22.4657 27.6437 22.5722 29.4316 23.1955 31.0678L27.2734 41.7719ZM34.4277 41.4233L34.0383 38.3078C34.0383 38.3078 33.99 36.7327 33.3609 35.5222C32.9845 34.7979 31.1823 34.4869 30.1294 34.6941C30.654 34.7033 31.1775 34.9806 31.459 35.5222C32.0881 36.7329 32.1364 38.3078 32.1364 38.3078L32.5258 41.4233C32.5526 41.6375 32.6252 41.8434 32.7387 42.027C32.8521 42.2106 33.0038 42.3676 33.1834 42.4874C33.7569 42.8697 34.4781 42.8006 34.9684 42.4011L34.9686 42.401C34.6693 42.1567 34.4757 41.8066 34.4277 41.4233Z" fill="#B9B9BE"/>
<path d="M37.9461 27.7722C37.7003 29.4118 36.7326 31.5469 35.5829 31.5498C35.1787 31.5508 34.8775 31.288 34.7983 31.2169C33.9283 30.4362 34.7796 29.1795 34.4571 26.8033C34.2409 25.2104 33.7245 24.7683 34.0946 24.1108C34.5377 23.3235 35.8703 22.9471 36.7574 23.35C38.454 24.1208 37.9945 27.449 37.9461 27.7722Z" fill="#ECECF1"/>
<path d="M28.0838 28.1848V30.9486C28.0838 31.1929 27.9868 31.4272 27.814 31.5999C27.6413 31.7727 27.407 31.8698 27.1626 31.8698H24.3989V34.6335C24.3989 34.8778 24.3019 35.1121 24.1291 35.2849C23.9564 35.4576 23.722 35.5547 23.4777 35.5547H20.714C20.4697 35.5547 20.2354 35.4576 20.0626 35.2849C19.8899 35.1121 19.7928 34.8778 19.7928 34.6335V31.8698H17.0291C16.9081 31.8698 16.7883 31.8459 16.6766 31.7996C16.5648 31.7533 16.4633 31.6855 16.3777 31.5999C16.2922 31.5144 16.2243 31.4128 16.178 31.3011C16.1317 31.1893 16.1079 31.0695 16.1079 30.9486V28.1848C16.1079 28.0639 16.1317 27.9441 16.178 27.8323C16.2243 27.7206 16.2922 27.619 16.3777 27.5335C16.4633 27.4479 16.5648 27.3801 16.6766 27.3338C16.7883 27.2875 16.9081 27.2636 17.0291 27.2636H19.7928V24.4999C19.7928 24.2556 19.8899 24.0213 20.0626 23.8485C20.2354 23.6758 20.4697 23.5787 20.714 23.5787H23.4777C23.722 23.5787 23.9564 23.6758 24.1291 23.8485C24.3019 24.0213 24.3989 24.2556 24.3989 24.4999V27.2636H27.1626C27.407 27.2636 27.6413 27.3607 27.814 27.5335C27.9868 27.7062 28.0838 27.9405 28.0838 28.1848Z" fill="#FF2EA6"/>
<path d="M28.0838 28.1848V30.9486C28.0838 31.1929 27.9868 31.4272 27.814 31.5999C27.6413 31.7727 27.407 31.8698 27.1627 31.8698H24.3989V34.6335C24.3989 34.8778 24.3019 35.1121 24.1291 35.2848C23.9564 35.4576 23.7221 35.5547 23.4777 35.5547H22.0958V23.5786H23.4776C23.7219 23.5786 23.9562 23.6757 24.129 23.8484C24.3018 24.0212 24.3988 24.2555 24.3988 24.4998V27.2635H27.1625C27.4069 27.2636 27.6412 27.3606 27.814 27.5334C27.9867 27.7062 28.0838 27.9405 28.0838 28.1848Z" fill="#FF50B5"/>
<path d="M25.1198 46.4072C25.1198 46.6454 25.0251 46.8739 24.8567 47.0423C24.6882 47.2108 24.4598 47.3054 24.2215 47.3054H15.2395C15.0013 47.3054 14.7728 47.2108 14.6044 47.0423C14.4359 46.8739 14.3413 46.6454 14.3413 46.4072C14.3413 46.169 14.4359 45.9405 14.6044 45.7721C14.7728 45.6036 15.0013 45.509 15.2395 45.509H24.2215C24.4598 45.509 24.6882 45.6036 24.8567 45.7721C25.0251 45.9405 25.1198 46.169 25.1198 46.4072ZM30.2096 45.509H29.6108C29.3726 45.509 29.1441 45.6036 28.9756 45.7721C28.8072 45.9405 28.7126 46.169 28.7126 46.4072C28.7126 46.6454 28.8072 46.8739 28.9756 47.0423C29.1441 47.2108 29.3726 47.3054 29.6108 47.3054H30.2096C30.4478 47.3054 30.6763 47.2108 30.8447 47.0423C31.0131 46.8739 31.1078 46.6454 31.1078 46.4072C31.1078 46.169 31.0131 45.9405 30.8447 45.7721C30.6763 45.6036 30.4478 45.509 30.2096 45.509ZM30.2096 49.1018H29.6108C29.3726 49.1018 29.1441 49.1964 28.9756 49.3649C28.8072 49.5333 28.7126 49.7618 28.7126 50C28.7126 50.2382 28.8072 50.4667 28.9756 50.6351C29.1441 50.8036 29.3726 50.8982 29.6108 50.8982H30.2096C30.4478 50.8982 30.6763 50.8036 30.8447 50.6351C31.0131 50.4667 31.1078 50.2382 31.1078 50C31.1078 49.7618 31.0131 49.5333 30.8447 49.3649C30.6763 49.1964 30.4478 49.1018 30.2096 49.1018ZM30.2096 52.6946H29.6108C29.3726 52.6946 29.1441 52.7893 28.9756 52.9577C28.8072 53.1261 28.7126 53.3546 28.7126 53.5928C28.7126 53.8311 28.8072 54.0595 28.9756 54.228C29.1441 54.3964 29.3726 54.491 29.6108 54.491H30.2096C30.4478 54.491 30.6763 54.3964 30.8447 54.228C31.0131 54.0595 31.1078 53.8311 31.1078 53.5928C31.1078 53.3546 31.0131 53.1261 30.8447 52.9577C30.6763 52.7893 30.4478 52.6946 30.2096 52.6946ZM24.2215 52.6946H15.2395C15.0013 52.6946 14.7728 52.7893 14.6044 52.9577C14.4359 53.1261 14.3413 53.3546 14.3413 53.5928C14.3413 53.8311 14.4359 54.0595 14.6044 54.228C14.7728 54.3964 15.0013 54.491 15.2395 54.491H24.2215C24.4598 54.491 24.6882 54.3964 24.8567 54.228C25.0251 54.0595 25.1198 53.8311 25.1198 53.5928C25.1198 53.3546 25.0251 53.1261 24.8567 52.9577C24.6882 52.7893 24.4598 52.6946 24.2215 52.6946ZM21.8263 49.1018H15.2395C15.0013 49.1018 14.7728 49.1964 14.6044 49.3649C14.4359 49.5333 14.3413 49.7618 14.3413 50C14.3413 50.2382 14.4359 50.4667 14.6044 50.6351C14.7728 50.8036 15.0013 50.8982 15.2395 50.8982H21.8263C22.0646 50.8982 22.293 50.8036 22.4615 50.6351C22.6299 50.4667 22.7245 50.2382 22.7245 50C22.7245 49.7618 22.6299 49.5333 22.4615 49.3649C22.293 49.1964 22.0646 49.1018 21.8263 49.1018ZM38.7724 45.509H34.5808C34.3426 45.509 34.1141 45.6036 33.9457 45.7721C33.7773 45.9405 33.6826 46.169 33.6826 46.4072C33.6826 46.6454 33.7773 46.8739 33.9457 47.0423C34.1141 47.2108 34.3426 47.3054 34.5808 47.3054H38.7724C39.0107 47.3054 39.2391 47.2108 39.4076 47.0423C39.576 46.8739 39.6707 46.6454 39.6707 46.4072C39.6707 46.169 39.576 45.9405 39.4076 45.7721C39.2391 45.6036 39.0107 45.509 38.7724 45.509ZM44.7605 45.509H44.1617C43.9234 45.509 43.695 45.6036 43.5265 45.7721C43.3581 45.9405 43.2635 46.169 43.2635 46.4072C43.2635 46.6454 43.3581 46.8739 43.5265 47.0423C43.695 47.2108 43.9234 47.3054 44.1617 47.3054H44.7605C44.9987 47.3054 45.2272 47.2108 45.3956 47.0423C45.564 46.8739 45.6587 46.6454 45.6587 46.4072C45.6587 46.169 45.564 45.9405 45.3956 45.7721C45.2272 45.6036 44.9987 45.509 44.7605 45.509ZM44.7605 49.1018H44.1617C43.9234 49.1018 43.695 49.1964 43.5265 49.3649C43.3581 49.5333 43.2635 49.7618 43.2635 50C43.2635 50.2382 43.3581 50.4667 43.5265 50.6351C43.695 50.8036 43.9234 50.8982 44.1617 50.8982H44.7605C44.9987 50.8982 45.2272 50.8036 45.3956 50.6351C45.564 50.4667 45.6587 50.2382 45.6587 50C45.6587 49.7618 45.564 49.5333 45.3956 49.3649C45.2272 49.1964 44.9987 49.1018 44.7605 49.1018ZM44.7605 52.6946H44.1617C43.9234 52.6946 43.695 52.7893 43.5265 52.9577C43.3581 53.1261 43.2635 53.3546 43.2635 53.5928C43.2635 53.8311 43.3581 54.0595 43.5265 54.228C43.695 54.3964 43.9234 54.491 44.1617 54.491H44.7605C44.9987 54.491 45.2272 54.3964 45.3956 54.228C45.564 54.0595 45.6587 53.8311 45.6587 53.5928C45.6587 53.3546 45.564 53.1261 45.3956 52.9577C45.2272 52.7893 44.9987 52.6946 44.7605 52.6946ZM38.7724 52.6946H34.5808C34.3426 52.6946 34.1141 52.7893 33.9457 52.9577C33.7773 53.1261 33.6826 53.3546 33.6826 53.5928C33.6826 53.8311 33.7773 54.0595 33.9457 54.228C34.1141 54.3964 34.3426 54.491 34.5808 54.491H38.7724C39.0107 54.491 39.2391 54.3964 39.4076 54.228C39.576 54.0595 39.6707 53.8311 39.6707 53.5928C39.6707 53.3546 39.576 53.1261 39.4076 52.9577C39.2391 52.7893 39.0107 52.6946 38.7724 52.6946ZM36.3772 49.1018H34.5808C34.3426 49.1018 34.1141 49.1964 33.9457 49.3649C33.7773 49.5333 33.6826 49.7618 33.6826 50C33.6826 50.2382 33.7773 50.4667 33.9457 50.6351C34.1141 50.8036 34.3426 50.8982 34.5808 50.8982H36.3772C36.6155 50.8982 36.8439 50.8036 37.0124 50.6351C37.1808 50.4667 37.2754 50.2382 37.2754 50C37.2754 49.7618 37.1808 49.5333 37.0124 49.3649C36.8439 49.1964 36.6155 49.1018 36.3772 49.1018ZM40.2994 7.78444V10.1797C40.2994 11.1718 39.4951 11.9761 38.503 11.9761H21.497C20.5049 11.9761 19.7006 11.1718 19.7006 10.1797V7.78444C19.7006 6.79235 20.5049 5.98804 21.497 5.98804H38.503C39.4951 5.98804 40.2994 6.79235 40.2994 7.78444Z" fill="#B9B9BE"/>
<path d="M38.503 13.1737H21.497C19.1821 13.1737 17.3054 11.297 17.3054 8.98208C17.3054 7.98998 18.1097 7.18567 19.1018 7.18567H40.8982C41.8903 7.18567 42.6946 7.98998 42.6946 8.98208C42.6946 11.297 40.818 13.1737 38.503 13.1737Z" fill="#D3D3D8"/>
<path d="M25.5689 13.1737H21.497C19.1821 13.1737 17.3054 11.297 17.3054 8.98208C17.3054 7.98998 18.1097 7.18567 19.1018 7.18567H23.1737C22.1816 7.18567 21.3773 7.98998 21.3773 8.98208C21.3773 11.297 23.2539 13.1737 25.5689 13.1737Z" fill="#B9B9BE"/>
</g>
<defs>
<clipPath id="clip0_1793_4807">
<rect width="60" height="60" fill="white"/>
</clipPath>
</defs>
</svg>
