<svg width="60" height="60" viewBox="0 0 60 60" fill="none" xmlns="http://www.w3.org/2000/svg">
<path d="M5.625 10.4392H54.375V57.7545H5.625V10.4392Z" fill="#CFE8F9"/>
<path d="M5.625 10.4392H9.78621V57.7545H5.625V10.4392Z" fill="#BEDCED"/>
<path d="M55.4297 11.4811H4.57031C4.35275 11.4811 4.1441 11.3947 3.99026 11.2408C3.83643 11.087 3.75 10.8783 3.75 10.6608V8.55139C3.75 8.33383 3.83643 8.12518 3.99026 7.97134C4.1441 7.8175 4.35275 7.73108 4.57031 7.73108H16.875L18.621 9.08635H41.2828L43.125 7.73108H55.4297C55.6472 7.73108 55.8559 7.8175 56.0097 7.97134C56.1636 8.12518 56.25 8.33383 56.25 8.55139V10.6608C56.25 10.8783 56.1636 11.087 56.0097 11.2408C55.8559 11.3947 55.6472 11.4811 55.4297 11.4811Z" fill="#4F71B6"/>
<path d="M3.75 8.55139V10.6608C3.75 10.8783 3.83643 11.087 3.99026 11.2408C4.1441 11.3947 4.35275 11.4811 4.57031 11.4811H9.78621V7.73108H4.57031C4.35275 7.73108 4.1441 7.8175 3.99026 7.97134C3.83643 8.12518 3.75 8.33383 3.75 8.55139Z" fill="#3C58A0"/>
<path d="M43.1251 22.5V23.7888H21.7041L20.0669 22.5073V1.62949L21.7041 0H42.3047C42.5223 0 42.731 0.0864255 42.8848 0.240264C43.0386 0.394102 43.1251 0.602752 43.1251 0.820312V22.5Z" fill="#FF3D00"/>
<path d="M16.875 0.820312V23.7888H21.7041V0H17.6953C17.4778 0 17.2691 0.0864255 17.1153 0.240264C16.9614 0.394102 16.875 0.602752 16.875 0.820312Z" fill="#FF3D00"/>
<path d="M29.0477 24.3905H48.7493V57.7545H29.0477V24.3905Z" fill="#A1D6F7"/>
<path d="M44.1796 52.5H37.3717L36.5315 51.6944V31.0173L37.3717 30H44.1796C44.3972 30 44.6058 30.0865 44.7597 30.2403C44.9135 30.3941 44.9999 30.6028 44.9999 30.8203V51.6797C44.9999 51.8973 44.9135 52.1059 44.7597 52.2598C44.6058 52.4136 44.3972 52.5 44.1796 52.5ZM33.303 3.7887C32.5656 3.79373 31.8478 4.02664 31.248 4.45549C30.8837 4.71542 30.4474 4.85513 29.9999 4.85513C29.5525 4.85513 29.1161 4.71542 28.7519 4.45549C28.152 4.02666 27.4343 3.7938 26.6969 3.78881C23.5119 3.76245 21.8627 7.62881 24.1055 9.906H24.1054C24.1349 9.94795 25.1956 10.8649 25.3087 12.506L25.6348 17.239C25.692 18.0682 26.3813 18.7116 27.2124 18.7116C28.0397 18.7116 28.7272 18.074 28.7893 17.249L29.1405 13.1132C29.1984 12.3442 30.0551 12.2928 29.9999 12.316C30.2173 12.316 30.4267 12.3981 30.5861 12.546C30.7454 12.6938 30.8431 12.8964 30.8594 13.1132L31.2106 17.249C31.2727 18.074 31.9601 18.7116 32.7875 18.7116C33.6186 18.7116 34.308 18.0681 34.3651 17.239L34.6912 12.5059C34.759 11.5209 35.1874 10.5953 35.8944 9.906C36.5432 9.24717 36.9404 8.33956 36.9281 7.33901C36.9042 5.36827 35.2736 3.77241 33.303 3.7887Z" fill="#E9F5FF"/>
<path d="M27.7272 9.90589C27.0783 9.24707 26.6813 8.33945 26.6935 7.33879C26.7093 6.03695 27.4267 4.89894 28.4799 4.28101C27.9391 3.96322 27.3241 3.79343 26.6969 3.78871C23.5119 3.76234 21.8627 7.62871 24.1055 9.90589H24.1054C24.8125 10.5952 25.2408 11.5208 25.3087 12.5059L25.6348 17.2389C25.6919 18.0681 26.3813 18.7115 27.2124 18.7115C28.0397 18.7115 28.7272 18.0739 28.7893 17.2489L29.0477 14.2067C28.8652 13.1327 29.2601 11.4004 27.7272 9.90589Z" fill="#CFE8F9"/>
<path d="M29.0477 24.3823H33.75V57.7545H29.0477V24.3823Z" fill="#86CCEF"/>
<path d="M33.75 30.8203V51.6797C33.75 51.8972 33.8364 52.1059 33.9903 52.2597C34.1441 52.4136 34.3528 52.5 34.5703 52.5H37.3718V30H34.5703C34.3528 30 34.1441 30.0864 33.9903 30.2403C33.8364 30.3941 33.75 30.6028 33.75 30.8203Z" fill="#CFE8F9"/>
<path d="M14.9991 24.3823H29.9983V57.7545H14.9991V24.3823Z" fill="#A1D6F7"/>
<path d="M11.25 24.3823H14.9992V57.7545H11.25V24.3823Z" fill="#86CCEF"/>
<path d="M25.4289 52.5H18.621L17.7023 51.6943V31.0173L18.621 30H25.4289C25.6465 30 25.8551 30.0864 26.009 30.2403C26.1628 30.3941 26.2492 30.6028 26.2492 30.8203V51.6797C26.2492 51.8972 26.1628 52.1059 26.009 52.2597C25.8551 52.4136 25.6465 52.5 25.4289 52.5Z" fill="#E9F5FF"/>
<path d="M14.9991 30.8203V51.6797C14.9991 51.8972 15.0856 52.1059 15.2394 52.2597C15.3932 52.4136 15.6019 52.5 15.8195 52.5H18.6209V30H15.8195C15.6019 30 15.3932 30.0864 15.2394 30.2403C15.0856 30.3941 14.9991 30.6028 14.9991 30.8203Z" fill="#CFE8F9"/>
<path d="M49.8046 26.2573H14.9991L13.4347 24.3823L14.9991 22.5073H49.8046C50.0222 22.5073 50.2309 22.5938 50.3847 22.7476C50.5385 22.9014 50.625 23.1101 50.625 23.3276V25.437C50.625 25.5447 50.6037 25.6514 50.5625 25.7509C50.5213 25.8505 50.4609 25.9409 50.3847 26.0171C50.3085 26.0932 50.2181 26.1537 50.1186 26.1949C50.019 26.2361 49.9124 26.2573 49.8046 26.2573Z" fill="#4F71B6"/>
<path d="M9.375 23.3276V25.437C9.375 25.5447 9.39622 25.6514 9.43744 25.7509C9.47867 25.8505 9.53909 25.9409 9.61526 26.0171C9.69144 26.0932 9.78187 26.1537 9.88139 26.1949C9.98092 26.2361 10.0876 26.2573 10.1953 26.2573H14.9992V22.5073H10.1953C9.97775 22.5073 9.7691 22.5938 9.61526 22.7476C9.46143 22.9014 9.375 23.1101 9.375 23.3276Z" fill="#3C58A0"/>
<path d="M57.3047 60H2.69531C2.47775 60 2.2691 59.9136 2.11526 59.7597C1.96143 59.6059 1.875 59.3972 1.875 59.1797V57.0703C1.875 56.8528 1.96143 56.6441 2.11526 56.4903C2.2691 56.3364 2.47775 56.25 2.69531 56.25H57.3047C57.5222 56.25 57.7309 56.3364 57.8847 56.4903C58.0386 56.6441 58.125 56.8528 58.125 57.0703V59.1797C58.125 59.3972 58.0386 59.6059 57.8847 59.7597C57.7309 59.9136 57.5222 60 57.3047 60Z" fill="#4F71B6"/>
<path d="M1.875 57.0703V59.1797C1.875 59.3972 1.96143 59.6059 2.11526 59.7597C2.2691 59.9136 2.47775 60 2.69531 60H9.78621V56.25H2.69531C2.47775 56.25 2.2691 56.3364 2.11526 56.4903C1.96143 56.6441 1.875 56.8528 1.875 57.0703Z" fill="#3C58A0"/>
</svg>
