<svg width="60" height="60" viewBox="0 0 60 60" fill="none" xmlns="http://www.w3.org/2000/svg">
<g clip-path="url(#clip0_1793_4773)">
<path d="M52.6512 48.9316C56.4482 44.0636 58.7114 37.9407 58.7114 31.2886C58.7114 15.4318 45.8569 2.57727 30 2.57727C14.1432 2.57727 1.28857 15.4318 1.28857 31.2886C1.28857 36.6797 2.77569 41.7229 5.36028 46.0328L52.6512 48.9316Z" fill="#50DD89"/>
<path d="M18.4324 33.7382C18.1697 33.7385 17.9145 33.65 17.7083 33.4872C17.1997 33.0869 17.1121 32.3501 17.5124 31.8416C20.2403 28.3761 24.3156 26.3885 28.6931 26.3885C31.8144 26.3885 34.7824 27.391 37.2763 29.2872C37.7914 29.679 37.8915 30.4141 37.4997 30.9294C37.1082 31.4445 36.3729 31.5449 35.8576 31.1528C33.7749 29.5693 31.2976 28.7323 28.6929 28.7323C25.0384 28.7323 21.6346 30.394 19.3539 33.2913C19.2442 33.4308 19.1043 33.5436 18.9447 33.621C18.785 33.6984 18.6098 33.7385 18.4324 33.7382Z" fill="#3C58A0"/>
<path d="M27.9927 51.1884C25.4634 48.3445 22.2889 47.1385 21.0086 46.7447C20.6681 46.64 20.4769 46.2884 20.5731 45.9443L21.0197 44.3473C21.0621 44.198 21.069 44.0408 21.04 43.8883C21.0109 43.7358 20.9467 43.5921 20.8523 43.4688C20.759 43.3447 20.6379 43.2441 20.4989 43.1751C20.3598 43.106 20.2065 43.0704 20.0512 43.0709H17.3296C17.2524 43.0709 17.1758 43.0571 17.1034 43.0304C15.6239 43.9302 13.7139 45.7422 13.7139 49.1073V54.9315C15.9278 56.4591 18.3655 57.6855 20.9698 58.5478L22.5298 59.0152C24.3598 59.5068 26.2341 59.8157 28.1251 59.9372V50.186C28.066 50.518 28.0218 50.8524 27.9927 51.1884Z" fill="#BEC8F7"/>
<path d="M13.8896 49.1072C13.8896 45.6723 15.9016 43.9029 17.3615 43.0709H17.3295C17.2384 43.0714 17.1482 43.0526 17.0649 43.0157C16.9815 42.9789 16.9069 42.9249 16.8459 42.8571C16.7842 42.79 16.7374 42.7106 16.7086 42.6242C16.6797 42.5377 16.6694 42.4462 16.6784 42.3555L17.2222 36.5905C17.2516 36.2785 17.35 35.9769 17.5104 35.7076C15.6254 36.5619 12.751 37.7689 9.90617 38.5937C8.11613 39.1128 6.72723 40.5306 6.25109 42.3325C5.92798 43.5595 5.63099 44.7932 5.36035 46.0328C6.30308 47.6042 7.39361 49.082 8.61711 50.4462L10.2308 52.1069C11.3682 53.1873 12.5918 54.1732 13.8896 55.0546V49.1072Z" fill="#ABBAEF"/>
<path d="M30.5638 0.137573C29.9033 0.439214 28.242 1.34261 27.5878 3.03585C27.1273 4.22789 27.2672 5.56218 28.003 7.00242L27.9771 7.17679C28.677 7.29335 29.3947 7.23743 30.0681 7.0139C31.4415 6.5571 33.2438 6.09972 34.9995 6.88968C37.0661 7.81956 37.1272 10.6641 37.0132 12.2382C36.9735 12.7856 37.1037 13.3345 37.3995 13.7986C37.5741 14.0726 37.7127 14.3631 37.8227 14.65C37.9594 15.0066 38.0566 15.6095 38.1168 15.9836C38.434 15.8299 39.2389 15.4281 39.6267 15.4829C39.6742 13.8373 39.8261 12.0632 39.8261 12.0632C41.3045 4.82261 36.1165 0.897768 30.5638 0.137573Z" fill="#2A428C"/>
<path d="M30.8975 0.187123C29.4744 -0.0410408 28.0189 -0.0604939 26.6379 0.127709C20.4667 0.968529 19.8803 4.4674 19.8775 5.75107C19.8769 6.02025 19.7278 6.26974 19.4858 6.38751C16.2758 7.94904 18.0064 15.4752 18.0064 15.4752C18.3288 15.4967 19.0177 15.8617 19.2693 15.9835C19.331 15.6 19.4315 14.988 19.5737 14.6231C19.6819 14.345 19.8172 14.064 19.9864 13.7986C20.2788 13.3381 20.4146 12.7955 20.3738 12.2516C20.2585 10.6815 20.314 7.82201 22.3865 6.88954C24.1422 6.09947 25.9444 6.55697 27.3179 7.01376C27.5888 7.10368 27.8678 7.16675 28.1511 7.20208C28.1732 7.05384 28.1849 6.97193 28.1849 6.97193C25.6762 2.14533 30.8481 0.205522 30.8975 0.187123Z" fill="#1C2E7A"/>
<path d="M40.2033 15.6967C39.7226 15.2562 38.7653 15.4796 38.3512 15.7492C38.442 16.314 38.4471 16.8917 38.3687 17.4623L37.8802 21.0202C37.8802 21.307 37.8711 21.5883 37.8545 21.8649C39.0457 22.2242 39.6374 21.1549 39.7371 20.4209C39.7799 20.105 39.8503 19.7934 39.9475 19.4898C40.2645 18.5001 41.4075 16.8004 40.2033 15.6967Z" fill="#FFAA7B"/>
<path d="M17.1829 15.6967C17.6636 15.2562 18.6209 15.4796 19.035 15.7492C18.9446 16.3163 18.9387 16.8935 19.0175 17.4623L19.506 21.0202C19.506 21.307 19.5151 21.5883 19.5317 21.8649C18.3405 22.2242 17.7488 21.1549 17.6491 20.4209C17.6063 20.105 17.5359 19.7934 17.4387 19.4898C17.1217 18.5001 15.9787 16.8004 17.1829 15.6967Z" fill="#FC9460"/>
<path d="M31.432 38.5228C31.3422 38.6167 31.266 38.7228 31.2056 38.8378H26.254C26.1935 38.7228 26.1173 38.6168 26.0276 38.5228L21.2442 33.5221C21.1763 33.5843 21.1099 33.6443 21.0463 33.7005C22.7164 38.794 25.5036 43.376 27.3773 46.118C27.8783 46.8518 28.2898 47.6429 28.603 48.4744C28.9163 47.643 29.3276 46.8519 29.8284 46.118C31.7145 43.3579 34.5268 38.7334 36.1931 33.5994C36.1984 33.5831 36.2048 33.5678 36.2115 33.5526L36.198 33.5401L31.432 38.5228Z" fill="#49B1F7"/>
<path d="M34.25 30.0149C33.8414 30.4335 33.4049 30.824 32.9434 31.1835C31.7308 32.1251 30.2345 32.6365 28.6932 32.6365C28.6146 32.6365 28.5361 32.6343 28.4577 32.6316L28.4588 32.6365C28.4588 32.6365 28.2887 35.1741 26.4307 37.1579L26.4519 37.1801C26.5275 37.2592 26.5917 37.3484 26.6425 37.4453H30.8127C30.8635 37.3484 30.9277 37.2591 31.0033 37.1801L35.1214 32.8747C35.193 32.8 35.2758 32.7369 35.3668 32.6877C34.6801 31.8047 34.3776 30.6879 34.25 30.0149Z" fill="#FFAA7B"/>
<path d="M26.5409 37.2875C28.5158 35.2865 28.6932 32.6365 28.6932 32.6365C27.152 32.6365 25.6557 32.1251 24.443 31.1835C23.9929 30.8327 23.5665 30.4525 23.1666 30.0453C23.0364 30.7181 22.7347 31.8072 22.0647 32.675C22.165 32.7259 22.2559 32.7935 22.3336 32.8748L26.4518 37.1801C26.4843 37.2141 26.5131 37.2504 26.5409 37.2875Z" fill="#FC9460"/>
<path d="M38.1744 14.6501C38.0645 14.3632 37.9259 14.0727 37.7512 13.7987C37.4555 13.3346 37.3253 12.7856 37.365 12.2383C37.479 10.664 37.4178 7.58526 35.3513 6.65537C33.5956 5.8654 31.4421 6.32279 30.0685 6.77947C29.2954 7.03616 28.4659 7.07128 27.6739 6.88084C26.4162 8.21245 26.3913 10.6629 26.4907 12.0167C26.5319 12.5774 26.394 13.1382 26.0909 13.6135C25.9163 13.8875 25.7766 14.1774 25.6648 14.4646C25.3023 15.3957 25.1966 16.4055 25.3325 17.3943L25.8368 21.0675C25.8368 26.3485 28.6559 29.938 31.0538 31.8001C31.244 31.9471 31.4416 32.0844 31.6459 32.2112C32.1063 31.9954 32.5415 31.7293 32.9434 31.4177C35.2665 29.6137 37.9976 26.1363 37.9976 21.0201L38.4861 17.4621C38.6162 16.5138 38.5174 15.545 38.1744 14.6501Z" fill="#FFC7AB"/>
<path d="M31.0837 31.4178C28.7607 29.6138 26.0296 26.1364 26.0296 21.0202L25.5409 17.4615C25.4094 16.5036 25.5117 15.5253 25.8629 14.6232C25.9712 14.3451 26.1066 14.0642 26.2757 13.7988C26.5681 13.3383 26.7039 12.7957 26.663 12.2518C26.5583 10.8273 26.5945 8.14858 28.1501 6.96768C27.8672 6.93238 27.5884 6.86934 27.3178 6.77947C25.9444 6.32279 23.7907 5.8654 22.0351 6.65537C19.9626 7.58795 19.9071 10.6817 20.0224 12.2518C20.0622 12.795 19.9287 13.3383 19.6351 13.7988C19.4659 14.0642 19.3306 14.3451 19.2224 14.6232C18.8713 15.5253 18.7688 16.5036 18.9003 17.4615L19.389 21.0202C19.389 26.1364 22.1201 29.6138 24.4431 31.4178C25.6556 32.3594 27.152 32.871 28.6932 32.871C29.8603 32.871 31.0015 32.577 32.0134 32.0257C31.6877 31.8484 31.3767 31.6451 31.0837 31.4178Z" fill="#FFAA7B"/>
<path d="M30.8994 38.1556C30.8461 38.0083 30.8241 37.8516 30.8347 37.6954C30.8453 37.5391 30.8884 37.3868 30.9611 37.2482H26.4907C26.5635 37.3868 26.6065 37.5391 26.6171 37.6954C26.6277 37.8516 26.6057 38.0083 26.5524 38.1556C26.3869 38.6129 26.177 39.053 25.9257 39.4695L27.2601 41.2664H30.1261L31.4965 39.4209C31.2584 39.0187 31.0585 38.5951 30.8994 38.1556Z" fill="#3C58A0"/>
<path d="M32.8506 41.1969C34.0813 38.9487 35.3014 36.3473 36.1932 33.5994C36.2205 33.5146 36.2693 33.4382 36.3347 33.3777C36.4001 33.3171 36.48 33.2744 36.5667 33.2537L36.2994 32.9227C35.9364 32.473 35.2609 32.4447 34.8614 32.8622L30.9097 36.9935C30.7648 37.1452 30.6651 37.3343 30.6218 37.5396C30.5786 37.7449 30.5936 37.9581 30.665 38.1553C30.9547 38.9581 31.5955 40.2871 32.8506 41.1969Z" fill="#9BD8F9"/>
<path d="M21.0126 33.5994C21.921 36.3981 23.1698 39.0443 24.4235 41.3207C25.7968 40.4116 26.4837 38.9952 26.7867 38.1554C26.8582 37.9582 26.8732 37.7449 26.8299 37.5397C26.7867 37.3344 26.687 37.1453 26.542 36.9936L22.5903 32.8623C22.1908 32.4447 21.5154 32.473 21.1523 32.9228L20.8091 33.3293C20.9054 33.3939 20.9771 33.489 21.0126 33.5994Z" fill="#73C3F9"/>
<path d="M28.7201 48.5849C28.3992 47.646 27.953 46.7548 27.3935 45.9354C25.5324 43.2119 22.7573 38.6488 21.1132 33.5829C21.0069 33.2555 20.6161 33.1225 20.3325 33.3175L18.0301 34.9011C17.7538 35.091 17.5227 35.3393 17.3528 35.6284C17.183 35.9174 17.0787 36.2402 17.0472 36.574L16.5034 42.3389C16.4574 42.8259 16.8404 43.2467 17.3294 43.2467H20.0511C20.6005 43.2467 20.9982 43.7709 20.8502 44.2998L20.4037 45.8968C20.2828 46.3295 20.5274 46.7805 20.9567 46.9125C22.4162 47.3615 25.6401 48.6338 28.1392 51.6277C28.1887 50.5912 28.3842 49.5668 28.7201 48.5849Z" fill="#D3DCFB"/>
<path d="M30.1261 41.2664C29.5872 41.2664 29.1088 41.032 28.6289 41.032C28.1897 41.032 27.7493 41.2664 27.2602 41.2664L26.2413 44.3916C26.61 44.9736 26.9887 45.5491 27.3773 46.1179C27.8783 46.8518 28.2898 47.6428 28.603 48.4743C28.9163 47.6429 29.3277 46.8518 29.8284 46.1179C30.2734 45.4665 30.7055 44.8063 31.1243 44.1377L30.1261 41.2664Z" fill="#4B6BB2"/>
<path d="M51.1712 42.3324C50.6952 40.5306 49.3063 39.1127 47.5164 38.5938C44.5105 37.7223 41.4717 36.4241 39.6017 35.5663C39.8168 35.8683 39.9485 36.2216 39.9836 36.5906L40.5275 42.3556C40.545 42.5412 40.4855 42.7193 40.36 42.8573C40.2345 42.9952 40.0627 43.071 39.8763 43.071H37.1546C36.9993 43.0704 36.846 43.106 36.7069 43.1751C36.5679 43.2442 36.4468 43.3448 36.3535 43.4689C36.2592 43.5922 36.1949 43.7358 36.1659 43.8884C36.1368 44.0409 36.1438 44.1981 36.1861 44.3474L36.6326 45.9444C36.6797 46.1082 36.6604 46.2841 36.5789 46.4338C36.4974 46.5836 36.3603 46.6953 36.1972 46.7449C34.5868 47.2401 30.671 48.7873 28.0664 52.6663H27.8906V59.9227C28.5872 59.9733 29.2903 60 29.9998 60C34.6473 60 39.036 58.8942 42.9194 56.9337L48.0526 53.612C49.7582 52.2316 51.3009 50.6614 52.651 48.9317C52.1419 46.2199 51.6052 43.9749 51.1712 42.3324Z" fill="#D3DCFB"/>
<path d="M45.0842 47.3664C44.1915 46.7001 42.9196 47.3544 42.9196 48.4683V56.9336C44.7439 56.012 46.4648 54.8984 48.053 53.6118C47.8103 50.167 46.3758 48.3304 45.0842 47.3664Z" fill="#BEC8F7"/>
<path d="M29.8123 45.9353C31.6733 43.2118 34.4485 38.6487 36.0926 33.5828C36.1989 33.2554 36.5897 33.1224 36.8733 33.3174L39.1757 34.9009C39.4519 35.0909 39.6831 35.3392 39.8529 35.6282C40.0228 35.9173 40.1271 36.2401 40.1585 36.5739L40.7024 42.3388C40.7483 42.8257 40.3654 43.2466 39.8763 43.2466H37.1548C36.6054 43.2466 36.2077 43.7707 36.3557 44.2997L36.8022 45.8966C36.9232 46.3294 36.6785 46.7803 36.2492 46.9124C34.547 47.4359 30.4437 49.0773 27.891 53.2666V52.1544C27.8906 49.9352 28.5603 47.7676 29.8123 45.9353Z" fill="#E9EFFF"/>
<path d="M41.7477 49.6465C41.1006 49.6465 40.5758 49.1217 40.5758 48.4746V40.615C40.5758 36.8817 38.8561 33.4327 35.8577 31.1528C35.3425 30.761 35.2425 30.0259 35.6343 29.5106C36.0259 28.9956 36.7611 28.8952 37.2764 29.2872C40.8627 32.0141 42.9196 36.143 42.9196 40.615V48.4745C42.9196 49.1217 42.3948 49.6465 41.7477 49.6465ZM15.6386 45.9251C14.9914 45.9251 14.4667 45.4004 14.4667 44.7532V40.615C14.4667 37.4067 15.5198 34.3728 17.5124 31.8415C17.9127 31.333 18.6492 31.245 19.1581 31.6456C19.6665 32.0459 19.7543 32.7827 19.354 33.2912C17.6901 35.4052 16.8104 37.9378 16.8104 40.615V44.7531C16.8104 45.4003 16.2857 45.9251 15.6386 45.9251Z" fill="#4F71B6"/>
<path d="M46.4401 25.0236C43.771 25.0236 41.341 26.0463 39.5196 27.7208C39.4957 27.9538 39.5005 28.3472 39.735 28.6476C39.9369 28.9062 40.2587 29.0375 40.6914 29.0375C41.2122 29.0375 43.7711 31.1006 45.8603 34.3534C49.1407 39.4609 48.6367 43.1406 47.6363 45.3281L47.6232 45.3569L47.6227 45.3885L47.6224 45.4083C47.6728 45.4025 47.7235 45.3974 47.7737 45.3909L50.7822 44.5132C54.2596 42.88 56.6682 39.3479 56.6682 35.2519C56.6684 29.6029 52.089 25.0236 46.4401 25.0236Z" fill="#FF7186"/>
<path d="M40.6914 28.8865C39.366 28.8865 39.6981 27.5604 39.6981 27.5604C37.5611 29.4351 36.2117 32.1857 36.2117 35.2518C36.2117 39.3478 38.6203 42.8798 42.0976 44.513L45.1062 45.3906C45.5431 45.4476 45.9876 45.48 46.4399 45.48C46.8923 45.48 47.3367 45.4476 47.7736 45.3906C51.2107 37.8753 42.0168 28.8865 40.6914 28.8865Z" fill="#FF4155"/>
<path d="M48.0024 28.8227C47.4424 29.0556 46.8374 29.1603 46.2318 29.1291C45.9091 29.4609 44.9226 30.5654 44.3767 32.1871C43.3138 35.3443 44.7885 37.9284 46.2515 39.5658C46.6667 39.5039 47.1071 39.6456 47.4048 39.9941C47.7238 40.3675 47.9987 40.9298 47.9987 41.7588C47.9987 42.6691 47.8905 44.106 47.7739 45.3906C48.8161 45.2555 49.8311 44.9594 50.7825 44.513C50.9421 44.0684 51.0799 43.5729 51.1855 43.0187C52.0254 38.6093 51.0596 38.7562 53.6631 34.483C55.698 31.1432 52.405 26.9909 48.0024 28.8227Z" fill="#E9EFFF"/>
<path d="M46.4399 29.1346C45.9086 29.1346 45.3774 29.0307 44.8776 28.8228C40.475 26.9911 37.182 31.1432 39.217 34.4831C41.8205 38.7563 40.8547 38.6094 41.6945 43.0188C41.8001 43.573 41.9379 44.0686 42.0975 44.513C43.049 44.9595 44.064 45.2556 45.1062 45.3907C44.9896 44.1061 44.8813 42.6692 44.8813 41.7589C44.8813 40.9298 45.1563 40.3675 45.4752 39.9942C45.5941 39.8546 45.742 39.7425 45.9086 39.6659C46.0752 39.5892 46.2564 39.5497 46.4398 39.5502C41.3187 33.9314 46.4399 29.1346 46.4399 29.1346Z" fill="#D3DCFB"/>
<path d="M45.3927 50.3428C45.7117 48.3357 44.3432 46.45 42.3361 46.1311C40.3289 45.8121 38.4433 47.1806 38.1243 49.1877C37.8053 51.1948 39.1738 53.0805 41.181 53.3995C43.1881 53.7184 45.0737 52.3499 45.3927 50.3428Z" fill="#49B1F7"/>
<path d="M43.5722 50.0949C43.7359 49.0921 43.0556 48.1464 42.0527 47.9827C41.0499 47.8191 40.1042 48.4993 39.9405 49.5022C39.7769 50.505 40.4571 51.4507 41.46 51.6144C42.4628 51.7781 43.4085 51.0978 43.5722 50.0949Z" fill="#D3DCFB"/>
<path d="M16.9269 43.933H14.2417C11.1376 43.933 8.61206 46.4585 8.61206 49.5627V50.441C9.13574 51.0259 9.68307 51.5891 10.2527 52.1293V49.5627C10.2527 47.3631 12.0423 45.5736 14.2417 45.5736H16.9269C19.1265 45.5736 20.9159 47.3632 20.9159 49.5627V58.5319C21.4578 58.7121 22.0049 58.8761 22.5566 59.0236V49.5628C22.5566 46.4584 20.031 43.933 16.9269 43.933Z" fill="#E9EFFF"/>
<path d="M9.31855 49.0368C8.71011 48.8163 8.3957 48.1442 8.61624 47.5357C9.47359 45.1704 11.7342 43.5813 14.2417 43.5813H16.9268C19.4342 43.5813 21.6948 45.1705 22.5523 47.5357C22.7728 48.1441 22.4584 48.8162 21.85 49.0368C21.2414 49.2574 20.5695 48.943 20.3488 48.3345C19.8264 46.8934 18.4512 45.925 16.9268 45.925H14.2417C12.7172 45.925 11.3421 46.8934 10.8197 48.3345C10.5987 48.9439 9.92628 49.2572 9.31855 49.0368Z" fill="#49B1F7"/>
<path d="M45.9374 7.40479C44.3739 9.53609 42.8321 12.9422 44.7101 16.8023C47.5961 22.7346 51.8957 24.8389 56.4975 20.2167C54.3053 14.9765 50.6043 10.5252 45.9374 7.40479ZM9.42237 11.2689C4.38961 16.441 1.28857 23.5021 1.28857 31.2887C1.28857 33.3658 1.51111 35.3906 1.93018 37.3426C14.0014 35.8603 15.5565 25.7385 13.931 18.4165C13.1988 15.1187 11.3586 12.842 9.42237 11.2689Z" fill="#70F2A4"/>
</g>
<defs>
<clipPath id="clip0_1793_4773">
<rect width="60" height="60" fill="white"/>
</clipPath>
</defs>
</svg>
