<svg width="14" height="15" viewBox="0 0 14 15" fill="none" xmlns="http://www.w3.org/2000/svg">
<path d="M7.00016 13.0996C6.86405 13.0996 6.72794 13.0753 6.59183 13.0267C6.45572 12.978 6.33419 12.9051 6.22725 12.8079C5.5953 12.2246 5.03627 11.6558 4.55016 11.1017C4.06405 10.5475 3.65815 10.0103 3.33245 9.4902C3.00676 8.97006 2.75884 8.46937 2.5887 7.98812C2.41857 7.50687 2.3335 7.04749 2.3335 6.60999C2.3335 5.15166 2.80259 3.98985 3.74079 3.12458C4.67898 2.2593 5.76544 1.82666 7.00016 1.82666C8.23488 1.82666 9.32134 2.2593 10.2595 3.12458C11.1977 3.98985 11.6668 5.15166 11.6668 6.60999C11.6668 7.04749 11.5818 7.50687 11.4116 7.98812C11.2415 8.46937 10.9936 8.97006 10.6679 9.4902C10.3422 10.0103 9.93627 10.5475 9.45016 11.1017C8.96405 11.6558 8.40502 12.2246 7.77308 12.8079C7.66613 12.9051 7.54461 12.978 7.4085 13.0267C7.27238 13.0753 7.13627 13.0996 7.00016 13.0996ZM7.00016 7.65999C7.321 7.65999 7.59565 7.54576 7.82412 7.31729C8.05259 7.08881 8.16683 6.81416 8.16683 6.49333C8.16683 6.17249 8.05259 5.89784 7.82412 5.66937C7.59565 5.4409 7.321 5.32666 7.00016 5.32666C6.67933 5.32666 6.40468 5.4409 6.1762 5.66937C5.94773 5.89784 5.8335 6.17249 5.8335 6.49333C5.8335 6.81416 5.94773 7.08881 6.1762 7.31729C6.40468 7.54576 6.67933 7.65999 7.00016 7.65999Z" fill="#717171"/>
</svg>
