<svg width="60" height="60" viewBox="0 0 60 60" fill="none" xmlns="http://www.w3.org/2000/svg">
<g clip-path="url(#clip0_1793_4843)">
<path d="M56.3783 60H3.62168C1.62152 60 0 58.3785 0 56.3783V10.799C0 8.79877 1.62152 7.17737 3.62168 7.17737H56.3782C58.3785 7.17737 59.9999 8.79889 59.9999 10.799V56.3782C60 58.3785 58.3785 60 56.3783 60Z" fill="#FFF7E8"/>
<path d="M52.8404 60L16.9829 24.1425L0.0178223 41.1076V56.7365C0.197705 58.5683 1.742 59.9995 3.62087 60H52.8404Z" fill="#FFC107"/>
<path d="M12.315 19.4746L1.06993 8.22949C0.488799 8.80664 0.102432 9.57938 0.0178223 10.4408V31.7716L12.315 19.4746Z" fill="#4CAF50"/>
<path d="M59.7548 57.6881C59.9171 57.2705 60.0002 56.8263 59.9999 56.3783V18.2484L40.4751 38.4084L59.7548 57.6881Z" fill="#1976D2"/>
<path d="M56.3792 7.17737H9.24414L35.6555 33.5887L59.6077 9.16018C59.0096 7.98409 57.7889 7.17772 56.3792 7.17737Z" fill="#FF3D00"/>
<path d="M42.7017 7.10648C42.7017 12.7901 38.0895 21.5372 35.5769 21.5372C32.9266 21.5372 28.4521 12.3097 28.4521 7.10648C28.4521 3.18164 31.642 0 35.5769 0C39.5118 0 42.7017 3.18164 42.7017 7.10648Z" fill="#FFC107"/>
<path d="M35.577 2.53433e-06C34.754 -0.000691508 33.9371 0.141171 33.1625 0.419299C35.9089 1.40602 37.8728 4.02715 37.8728 7.10649C37.8728 11.2235 35.4528 16.9471 33.1638 19.7899C34.0184 20.8682 34.8638 21.5372 35.577 21.5372C38.0896 21.5372 42.7018 12.79 42.7018 7.10649C42.7018 3.18164 39.5119 2.53433e-06 35.577 2.53433e-06Z" fill="#FFC107"/>
<path d="M35.5769 10.6476C37.4118 10.6476 38.8993 9.15628 38.8993 7.31666C38.8993 5.47703 37.4118 3.98572 35.5769 3.98572C33.742 3.98572 32.2545 5.47703 32.2545 7.31666C32.2545 9.15628 33.742 10.6476 35.5769 10.6476Z" fill="#FFF7E8"/>
<path d="M24.4267 41.7415C24.4267 47.4251 19.8145 56.1722 17.3019 56.1722C14.6516 56.1722 10.1771 46.9447 10.1771 41.7415C10.1771 37.8167 13.367 34.635 17.3019 34.635C21.2368 34.635 24.4267 37.8168 24.4267 41.7415Z" fill="#FF3D00"/>
<path d="M17.3019 34.6351C16.4788 34.6344 15.6619 34.7763 14.8873 35.0544C17.6337 36.0412 19.5977 38.6623 19.5977 41.7415C19.5977 45.8585 17.1776 51.5821 14.8886 54.4249C15.7433 55.5032 16.5887 56.1722 17.3019 56.1722C19.8145 56.1722 24.4266 47.4251 24.4266 41.7415C24.4266 37.8168 21.2368 34.6351 17.3019 34.6351Z" fill="#FF3D00"/>
<path d="M17.3019 45.2826C19.1368 45.2826 20.6243 43.7913 20.6243 41.9517C20.6243 40.112 19.1368 38.6207 17.3019 38.6207C15.467 38.6207 13.9795 40.112 13.9795 41.9517C13.9795 43.7913 15.467 45.2826 17.3019 45.2826Z" fill="#FFF7E8"/>
</g>
<defs>
<clipPath id="clip0_1793_4843">
<rect width="60" height="60" fill="white"/>
</clipPath>
</defs>
</svg>
