<svg width="40" height="40" viewBox="0 0 40 40" fill="none" xmlns="http://www.w3.org/2000/svg">
<path d="M26.4575 10.5975C26.1259 10.5975 25.808 10.7292 25.5736 10.9636C25.3392 11.1981 25.2075 11.516 25.2075 11.8475C25.2075 12.179 25.3392 12.497 25.5736 12.7314C25.808 12.9658 26.1259 13.0975 26.4575 13.0975C27.0625 13.0975 27.5625 13.2775 27.925 13.5975C28.28 13.915 28.6125 14.465 28.7075 15.4175C28.7239 15.5808 28.7723 15.7393 28.85 15.884C28.9276 16.0286 29.033 16.1565 29.1601 16.2604C29.2872 16.3643 29.4336 16.4421 29.5907 16.4894C29.7479 16.5368 29.9129 16.5527 30.0762 16.5363C30.2395 16.5199 30.398 16.4714 30.5427 16.3938C30.6873 16.3161 30.8152 16.2107 30.9191 16.0836C31.0229 15.9565 31.1008 15.8102 31.1481 15.653C31.1955 15.4958 31.2114 15.3308 31.195 15.1675C31.05 13.71 30.49 12.5375 29.5875 11.7325C28.72 10.9808 27.6051 10.5766 26.4575 10.5975ZM17.7675 6.99252C16.8747 6.24857 15.8261 5.71491 14.6993 5.43103C13.5724 5.14715 12.3961 5.12032 11.2575 5.35252C9.21247 5.75252 7.40747 6.88252 6.20997 8.17752L6.20497 8.18502C4.89747 9.62002 3.55997 11.485 3.44497 14.2025V14.2075C3.39497 15.5425 3.58497 17.49 4.63747 18.98L4.65247 18.9975C5.76747 20.51 6.38997 21.395 6.70247 22.25C7.05997 23.23 7.05997 24.22 7.05997 25.6925V25.8125C7.07247 27.2375 7.37497 29.205 8.10247 30.995C8.82247 32.76 10.06 34.595 12.1 35.3375L12.15 35.355L12.205 35.37C13.3875 35.685 14.52 35.58 15.38 34.7775C16.13 34.0775 16.43 33.0425 16.6 32.145C16.755 31.3175 16.8325 30.355 16.91 29.42L16.9375 29.0675C17.0275 27.9875 17.13 26.9175 17.34 25.9125V25.905C17.9075 23.1475 18.72 22.715 19.0325 22.6175C19.9575 22.38 20.5125 22.505 20.8725 22.71C21.2625 22.9325 21.6225 23.36 21.935 24.065C22.58 25.5275 22.77 27.6 22.945 29.52C23.095 31.4275 23.495 33.1825 24.28 34.32C24.6925 34.9175 25.285 35.4475 26.095 35.62C26.9125 35.7975 27.7 35.555 28.3825 35.12C30.8675 33.5325 32.2925 30.255 32.6675 25.9825C32.8425 23.955 33.0475 23.05 33.35 22.32C33.505 21.945 33.7 21.585 33.975 21.1125L34.24 20.6625C34.4666 20.2875 34.725 19.8425 35.015 19.3275L35.02 19.325C35.56 18.355 36.45 16.58 36.5525 14.5C36.66 12.33 35.9025 9.94252 33.365 7.88752C30.95 5.92752 28.685 5.20502 26.6475 5.31252C24.63 5.41752 23.0175 6.32752 21.865 7.30002L21.825 7.33502L21.79 7.37002C20.695 8.46502 20.2325 8.60752 19.9825 8.59502C19.6775 8.58252 19.1125 8.33752 17.8725 7.08502L17.8225 7.03502L17.7675 6.99252ZM5.94247 14.3075C6.02247 12.45 6.89997 11.1325 8.04997 9.87252C8.92497 8.92752 10.265 8.09502 11.735 7.80752C12.5055 7.64659 13.3024 7.661 14.0666 7.84968C14.8308 8.03835 15.5429 8.39647 16.15 8.89752C17.325 10.08 18.505 11.035 19.875 11.095C21.3 11.155 22.455 10.235 23.5175 9.17752C24.385 8.45252 25.4825 7.87752 26.7775 7.80752C28.0725 7.74002 29.7475 8.17252 31.79 9.82752C33.6875 11.365 34.125 12.9775 34.055 14.3775C33.9825 15.86 33.33 17.2175 32.8375 18.1025C32.5069 18.6918 32.166 19.2752 31.815 19.8525C31.525 20.3525 31.2625 20.8275 31.04 21.3625C30.59 22.4525 30.36 23.6675 30.175 25.7625C29.8275 29.73 28.5525 32.045 27.0375 33.0125C26.9342 33.0814 26.8213 33.1344 26.7025 33.17C26.645 33.1825 26.6225 33.1775 26.62 33.1775C26.6175 33.1775 26.595 33.1725 26.55 33.14C26.4667 33.072 26.3949 32.9909 26.3375 32.9C25.9375 32.325 25.5775 31.12 25.4375 29.3175V29.3025L25.42 29.115C25.26 27.34 25.04 24.91 24.2225 23.0575C23.79 22.075 23.135 21.12 22.1075 20.535C21.0525 19.935 19.7925 19.835 18.3825 20.205L18.3625 20.21L18.345 20.215C16.67 20.7025 15.525 22.325 14.895 25.4025C14.6475 26.575 14.535 27.7825 14.445 28.86L14.42 29.21C14.3686 30.0391 14.276 30.8651 14.1425 31.685C13.9925 32.495 13.8 32.83 13.67 32.95C13.6425 32.975 13.505 33.1175 12.9025 32.97C11.8575 32.565 11.015 31.5175 10.42 30.0525C9.88704 28.6944 9.59598 27.2535 9.55997 25.795V25.535C9.55997 24.205 9.56497 22.8025 9.04997 21.395C8.59247 20.135 7.72247 18.9475 6.67247 17.525C6.09247 16.7 5.89747 15.425 5.94247 14.3075Z" fill="white"/>
</svg>
